# xmcd
#
# Track frame offsets: 
#        150
#        13055
#        30822
#        47077
#        62062
#        80497
#        96917
#        118460
#        134695
#
# Disc length: 2065 seconds
#
# Revision: 2
# Processed by: cddbd v1.4PL0 Copyright (c) Steve Scherf et al.
# Submitted via: ExactAudioCopy v0.90b4
#
DISCID=78080f09
DTITLE=Vince Gill - The Way Back Home
DYEAR=1987
DGENRE=Country
TTITLE0=Everybody's Sweetheart
TTITLE1=The Way Back Home
TTITLE2=Cinderella
TTITLE3=Let's Do Something
TTITLE4=The Radio
TTITLE5=Baby That's Tough
TTITLE6=Losing Your Love
TTITLE7=It Doesn't Matter Any More
TTITLE8=Something's Missing
EXTD=
EXTT0=
EXTT1=
EXTT2=
EXTT3=
EXTT4=
EXTT5=
EXTT6=
EXTT7=
EXTT8=
PLAYORDER=
